<mxfile host="app.diagrams.net" agent="Mozilla/5.0 (Macintosh; Intel Mac OS X 10_15_7) AppleWebKit/537.36 (KHTML, like Gecko) Chrome/134.0.0.0 Safari/537.36" version="26.1.2">
  <diagram name="第 1 页" id="LAimbSd9u4otUmIS_u9X">
    <mxGraphModel dx="1642" dy="1185" grid="0" gridSize="10" guides="1" tooltips="1" connect="1" arrows="1" fold="1" page="0" pageScale="1" pageWidth="827" pageHeight="1169" math="0" shadow="0">
      <root>
        <mxCell id="0" />
        <mxCell id="1" parent="0" />
        <mxCell id="-5gHlo677Q9oYCEak8Rk-1" value="" style="rounded=0;whiteSpace=wrap;html=1;" vertex="1" parent="1">
          <mxGeometry x="-355" y="-366" width="922" height="180" as="geometry" />
        </mxCell>
        <mxCell id="-5gHlo677Q9oYCEak8Rk-2" value="" style="rounded=0;whiteSpace=wrap;html=1;" vertex="1" parent="1">
          <mxGeometry x="-355" y="-140" width="922" height="422" as="geometry" />
        </mxCell>
        <mxCell id="-5gHlo677Q9oYCEak8Rk-3" value="" style="rounded=0;whiteSpace=wrap;html=1;" vertex="1" parent="1">
          <mxGeometry x="-355" y="305" width="922" height="180" as="geometry" />
        </mxCell>
        <mxCell id="-5gHlo677Q9oYCEak8Rk-4" value="User Interface Layer" style="text;html=1;align=center;verticalAlign=middle;whiteSpace=wrap;rounded=0;" vertex="1" parent="1">
          <mxGeometry x="-355" y="-366" width="130" height="33" as="geometry" />
        </mxCell>
        <mxCell id="-5gHlo677Q9oYCEak8Rk-5" value="Business Logic Layer" style="text;html=1;align=center;verticalAlign=middle;whiteSpace=wrap;rounded=0;" vertex="1" parent="1">
          <mxGeometry x="-355" y="-140" width="130" height="33" as="geometry" />
        </mxCell>
        <mxCell id="-5gHlo677Q9oYCEak8Rk-6" value="Data Layer" style="text;html=1;align=center;verticalAlign=middle;whiteSpace=wrap;rounded=0;" vertex="1" parent="1">
          <mxGeometry x="-355" y="305" width="130" height="33" as="geometry" />
        </mxCell>
      </root>
    </mxGraphModel>
  </diagram>
</mxfile>
